<svg xmlns="http://www.w3.org/2000/svg" xmlns:svg="http://www.w3.org/2000/svg" id="svg2" width="512" height="512" version="1.1" viewBox="0 0 512 512"><metadata id="metadata7"/><g id="layer1" transform="translate(0,-540.36216)" style="display:inline"><path style="fill:none;fill-opacity:1;stroke:#000;stroke-width:6;stroke-miterlimit:4;stroke-dasharray:none;stroke-opacity:0" id="path4152" d="M 256.42856,1002.4857 49.87645,795.9336 256.42855,589.38148 462.98067,795.93359 Z"/><path style="fill:none;fill-opacity:1;stroke:#fff;stroke-width:20;stroke-miterlimit:4;stroke-dasharray:none;stroke-opacity:1" id="path4170" d="M 480.00002,796.36216 368.00003,990.35187 144.00001,990.3519 31.999985,796.36221 143.99997,602.37249 l 224.00002,-2e-5 z"/><path style="fill:#fff;fill-opacity:.75;stroke:none;stroke-width:6;stroke-miterlimit:4;stroke-dasharray:none;stroke-opacity:1" id="path4172" d="M 448,796.36218 352,962.63906 H 160 L 64,796.36218 160,630.08531 h 192 z"/></g><g id="layer2" style="display:inline"><path style="fill:none;fill-opacity:1;stroke:#fff;stroke-width:20;stroke-miterlimit:4;stroke-dasharray:none;stroke-opacity:1" id="path4217" d="M 256,416 96,256 256,96 416,256 Z"/><path style="fill:#fff;fill-opacity:.75101211;stroke:none;stroke-width:20;stroke-miterlimit:4;stroke-dasharray:none;stroke-opacity:1" id="path4221" d="M 256,384 128,256 256,128 384,256 Z"/></g><g id="layer3" style="display:inline"><path style="fill:none;fill-opacity:.75;stroke:#fff;stroke-width:20;stroke-miterlimit:4;stroke-dasharray:none;stroke-opacity:1" id="path4228" d="M 256.00001,416 89.72312,128 l 332.55375,0 z"/><path style="fill:#fff;fill-opacity:.75;stroke:none;stroke-width:20;stroke-miterlimit:4;stroke-dasharray:none;stroke-opacity:1" id="path4230" d="m 256,352 -110.85125,-192 221.7025,0 z"/></g></svg>