<svg xmlns="http://www.w3.org/2000/svg" width="150" height="150" version="1.1" viewBox="0 0 39.688 39.688"><metadata/><g fill="#fff" opacity=".96" transform="matrix(.28223 0 0 .28223 -55.916 -76.068)"><rect width="86.1" height="12.642" x="225.39" y="381.04" opacity="1" ry="6.321"/><rect width="89.175" height="8.883" x="223.85" y="386.51" opacity="1" rx="0" ry="1.025"/><path d="m261.06 288.03c-0.89874 0-1.6235 0.72476-1.6235 1.6235v15.008h-15.013c-0.89874 0-1.6185 0.72476-1.6185 1.6235v13.581c0 0.89873 0.71973 1.6185 1.6185 1.6185h15.013v15.013c0 0.89872 0.72476 1.6235 1.6235 1.6235h13.576c0.89873 0 1.6235-0.72476 1.6235-1.6235v-15.013h15.013c0.89871 0 1.6185-0.71974 1.6185-1.6185v-13.581c0-0.89872-0.71975-1.6235-1.6185-1.6235h-15.013v-15.008c0-0.89875-0.72475-1.6235-1.6235-1.6235z" opacity="1"/><rect width="62.857" height="12.342" x="236.43" y="362.37" opacity=".21"/><rect width="62.857" height="12.325" x="236.43" y="339.37" opacity=".21"/><rect width="62.857" height="7.206" x="236.43" y="321.81" opacity=".21"/></g></svg>