<svg xmlns="http://www.w3.org/2000/svg" width="150" height="150" version="1.1" viewBox="0 0 39.688 39.688"><metadata/><g opacity=".96"><g fill="#fff" transform="matrix(.28223 0 0 .28223 -150.8 -178.96)"><rect width="27.466" height="12.329" x="606.48" y="739.79" opacity="1" ry="0"/><path d="m594.32 745.98 14.125-2.7466 10.071 8.8938h-24.196z" opacity="1"/><path d="m647.81 745.98-14.125-2.7466-10.071 8.8938h24.196z" opacity="1"/></g><g fill="none" stroke="#fff" stroke-linecap="round" stroke-linejoin="round"><path stroke-width="10.452" d="m623.58 700.76 20.139 16.178-21.502 26.28" opacity="1" transform="matrix(.28223 0 0 .28223 -150.8 -178.96)"/><path stroke-width="4.181" d="m614.51 740.83 0.77222-12.95" opacity="1" transform="matrix(.28223 0 0 .28223 -150.8 -178.96)"/><path stroke-width="2.091" d="m615.25 728.11 1.7344-26.672" opacity="1" transform="matrix(.28223 0 0 .28223 -150.8 -178.96)"/></g><g fill="#fff" transform="matrix(.28223 0 0 .28223 -150.8 -178.96)"><rect width="46.609" height="25.173" x="605.5" y="678.41" opacity="1" ry="5.973"/><rect width="21.502" height="12.266" x="628.79" y="673.04" opacity="1" ry="2.886"/><path d="m610.01 685.58-0.33102-10.452 6.9514-6.8686 20.192-0.29864 0.33101 20.606z" opacity="1"/><rect width="61.909" height="3.545" x="549.67" y="694.16" opacity="1" ry="0"/><rect width="61.909" height="3.545" x="549.67" y="685.06" opacity="1" ry="0"/><rect width="61.909" height="3.545" x="549.67" y="689.48" opacity="1" ry="0"/><rect width="4.159" height="14.004" x="551.07" y="684.42" opacity="1"/><rect width="4.159" height="14.004" x="575.52" y="684.42" opacity="1"/><rect width="16.26" height="16.682" x="599.81" y="683.43" opacity="1" ry="3.907"/></g></g></svg>