<svg xmlns="http://www.w3.org/2000/svg" width="150" height="150" version="1.1" viewBox="0 0 39.688 39.688"><metadata/><g opacity=".96"><g fill="#fff" transform="matrix(.52664 0 0 .52664 -316.5 -51.333)"><rect width="15.598" height="7.002" x="630.02" y="157.21" opacity="1" ry="0"/><path d="m623.11 160.72 8.0219-1.5598 5.7193 5.0508h-13.741z" opacity="1"/><path d="m653.49 160.72-8.0219-1.5598-5.7193 5.0508h13.741z" opacity="1"/></g><g fill="none" stroke="#fff" stroke-linecap="round" stroke-linejoin="round"><path stroke-width="5.936" d="m639.73 135.04 11.437 9.1874-12.211 14.925" opacity="1" transform="matrix(.52664 0 0 .52664 -316.5 -51.333)"/><path stroke-width="2.374" d="m634.58 157.8 0.43854-7.3544" opacity="1" transform="matrix(.52664 0 0 .52664 -316.5 -51.333)"/><path stroke-width="1.187" d="m635 150.58 0.98496-15.147" opacity="1" transform="matrix(.52664 0 0 .52664 -316.5 -51.333)"/></g><g fill="#fff" transform="matrix(.52664 0 0 .52664 -316.5 -51.333)"><rect width="29.258" height="26.874" x="626.07" y="110.11" opacity="1" ry=".678"/><rect width="22.964" height="24.956" x="633.27" y="111.31" opacity="1" ry=".678"/><rect width="22.964" height="24.956" x="625.11" y="111.31" opacity="1" ry=".678"/></g></g></svg>