<svg xmlns="http://www.w3.org/2000/svg" xmlns:svg="http://www.w3.org/2000/svg" id="svg2" width="50" height="51" version="1.1"><metadata id="metadata7"/><g id="layer1" transform="translate(0,-1001.3621)"><path style="fill:#24dcdc;fill-opacity:1" id="rect2985" d="m 13.15625,8.375 c -0.843543,0 -1.697384,0.3223837 -2.34375,0.96875 L 8.78125,11.375 c -1.2927326,1.292733 -1.2927326,3.363517 0,4.65625 L 18.375,25.625 8.78125,35.21875 c -1.2927326,1.292733 -1.2927326,3.363517 0,4.65625 l 2.03125,2.03125 c 1.292733,1.292733 3.363517,1.292733 4.65625,0 l 9.59375,-9.59375 9.59375,9.59375 c 1.292733,1.292733 3.363517,1.292733 4.65625,0 L 41.34375,39.875 c 1.292733,-1.292733 1.292733,-3.363517 0,-4.65625 L 31.75,25.625 41.34375,16.03125 c 1.292733,-1.292733 1.292733,-3.363517 0,-4.65625 L 39.3125,9.34375 c -1.292733,-1.2927326 -3.363517,-1.2927326 -4.65625,0 L 25.0625,18.9375 15.46875,9.34375 C 14.822384,8.6973837 13.999793,8.375 13.15625,8.375 z" transform="translate(0,1002.3622)"/></g></svg>